<svg width="554" height="103" viewBox="0 0 554 103" fill="none" xmlns="http://www.w3.org/2000/svg">
<path d="M2.627 102.705V84.375L83.702 84.516C87.838 84.516 90.987 83.576 93.149 81.696C95.405 79.722 96.533 76.573 96.533 72.249C96.533 67.925 95.405 64.823 93.149 62.943C90.987 60.969 87.838 59.982 83.702 59.982H33.224C22.79 59.982 14.659 57.491 8.831 52.509C3.097 47.433 0.23 40.007 0.23 30.231C0.23 20.455 3.097 13.076 8.831 8.094C14.659 3.018 22.79 0.479996 33.224 0.479996H112.466V18.81L35.621 18.669C31.579 18.669 28.43 19.609 26.174 21.489C23.918 23.275 22.79 26.189 22.79 30.231C22.79 34.273 23.918 37.234 26.174 39.114C28.43 40.9 31.579 41.793 35.621 41.793H86.099C96.533 41.793 104.617 44.378 110.351 49.548C116.179 54.624 119.093 62.191 119.093 72.249C119.093 82.213 116.179 89.78 110.351 94.95C104.617 100.12 96.533 102.705 86.099 102.705H2.627ZM133.238 102V1.185H155.798V102H133.238ZM175.511 102V1.185H259.97C270.404 1.185 278.488 3.817 284.222 9.08099C290.05 14.345 292.964 22.335 292.964 33.051C292.964 42.169 290.849 49.313 286.619 54.483C282.389 59.653 276.373 62.896 268.571 64.212L291.836 102H266.174L244.601 64.917H198.071V102H175.511ZM257.291 19.515H198.071V46.446L257.291 46.587C261.427 46.587 264.576 45.553 266.738 43.485C268.994 41.417 270.122 37.939 270.122 33.051C270.122 28.069 268.994 24.591 266.738 22.617C264.576 20.549 261.427 19.515 257.291 19.515ZM309.901 102V1.185H420.445V19.515H332.461V41.793H412.267V60.123H332.461V83.67H420.445V102H309.901ZM427.432 102L472.834 1.185H507.661L553.063 102H528.529L518.941 80.709H461.554L451.966 102H427.432ZM469.732 62.379H510.763L491.164 18.81H489.331L469.732 62.379Z" fill="#444444"/>
</svg>
